<svg width="20" height="20" viewBox="0 0 20 20" fill="none" xmlns="http://www.w3.org/2000/svg">
<path d="M16.0998 8.95839H3.90814C2.33314 8.95839 1.0498 7.67506 1.0498 6.10006V3.90839C1.0498 2.33339 2.33314 1.05005 3.90814 1.05005H16.0998C17.6748 1.05005 18.9581 2.33339 18.9581 3.90839V6.10006C18.9581 7.67506 17.6748 8.95839 16.0998 8.95839ZM3.8998 2.29172C3.00814 2.29172 2.29148 3.01671 2.29148 3.90005V6.09172C2.29148 6.98339 3.01647 7.70006 3.8998 7.70006H16.0915C16.9831 7.70006 17.6998 6.97505 17.6998 6.09172V3.90005C17.6998 3.00838 16.9748 2.29172 16.0915 2.29172H3.8998Z" fill="#5B6171"/>
<path d="M16.0998 18.9584H3.90814C2.33314 18.9584 1.0498 17.6751 1.0498 16.1001V13.9084C1.0498 12.3334 2.33314 11.05 3.90814 11.05H16.0998C17.6748 11.05 18.9581 12.3334 18.9581 13.9084V16.1001C18.9581 17.6751 17.6748 18.9584 16.0998 18.9584ZM3.8998 12.2917C3.00814 12.2917 2.29148 13.0167 2.29148 13.9V16.0917C2.29148 16.9834 3.01647 17.7001 3.8998 17.7001H16.0915C16.9831 17.7001 17.6998 16.9751 17.6998 16.0917V13.9C17.6998 13.0084 16.9748 12.2917 16.0915 12.2917H3.8998Z" fill="#5B6171"/>
<path d="M5 6.45837C4.65833 6.45837 4.375 6.17504 4.375 5.83337V4.16671C4.375 3.82504 4.65833 3.54171 5 3.54171C5.34167 3.54171 5.625 3.82504 5.625 4.16671V5.83337C5.625 6.17504 5.34167 6.45837 5 6.45837Z" fill="#5B6171"/>
<path d="M8.33333 6.45837C7.99167 6.45837 7.70833 6.17504 7.70833 5.83337V4.16671C7.70833 3.82504 7.99167 3.54171 8.33333 3.54171C8.675 3.54171 8.95833 3.82504 8.95833 4.16671V5.83337C8.95833 6.17504 8.675 6.45837 8.33333 6.45837Z" fill="#5B6171"/>
<path d="M5 16.4584C4.65833 16.4584 4.375 16.175 4.375 15.8334V14.1667C4.375 13.825 4.65833 13.5417 5 13.5417C5.34167 13.5417 5.625 13.825 5.625 14.1667V15.8334C5.625 16.175 5.34167 16.4584 5 16.4584Z" fill="#5B6171"/>
<path d="M8.33333 16.4584C7.99167 16.4584 7.70833 16.175 7.70833 15.8334V14.1667C7.70833 13.825 7.99167 13.5417 8.33333 13.5417C8.675 13.5417 8.95833 13.825 8.95833 14.1667V15.8334C8.95833 16.175 8.675 16.4584 8.33333 16.4584Z" fill="#5B6171"/>
<path d="M15 5.62504H11.6667C11.325 5.62504 11.0417 5.34171 11.0417 5.00004C11.0417 4.65837 11.325 4.37504 11.6667 4.37504H15C15.3417 4.37504 15.625 4.65837 15.625 5.00004C15.625 5.34171 15.3417 5.62504 15 5.62504Z" fill="#5B6171"/>
<path d="M15 15.625H11.6667C11.325 15.625 11.0417 15.3417 11.0417 15C11.0417 14.6584 11.325 14.375 11.6667 14.375H15C15.3417 14.375 15.625 14.6584 15.625 15C15.625 15.3417 15.3417 15.625 15 15.625Z" fill="#5B6171"/>
</svg>
