<svg width="20" height="20" viewBox="0 0 20 20" fill="none" xmlns="http://www.w3.org/2000/svg">
<path d="M8.32483 18.9834C7.82483 18.9834 7.34983 18.7334 7.02483 18.2918L6.02485 16.9584C6.02485 16.9668 5.98317 16.9417 5.96651 16.9417H5.65818C2.80818 16.9417 1.0415 16.1668 1.0415 12.3251V8.99176C1.0415 5.48342 3.18318 4.56676 4.98318 4.40842C5.18318 4.38342 5.41651 4.37508 5.65818 4.37508H10.9915C14.0082 4.37508 15.6082 5.97509 15.6082 8.99176V12.3251C15.6082 12.5668 15.5998 12.8001 15.5665 13.0251C15.4165 14.8001 14.4998 16.9417 10.9915 16.9417H10.6582L9.62483 18.2918C9.29983 18.7334 8.82483 18.9834 8.32483 18.9834ZM5.65818 5.62508C5.46651 5.62508 5.28317 5.63341 5.10817 5.65008C3.17484 5.81675 2.2915 6.87509 2.2915 8.99176V12.3251C2.2915 15.1834 3.17484 15.6917 5.65818 15.6917H5.99151C6.36651 15.6917 6.7915 15.9001 7.02483 16.2001L8.02484 17.5417C8.20818 17.7917 8.44151 17.7917 8.62484 17.5417L9.62483 16.2084C9.86649 15.8834 10.2498 15.6917 10.6582 15.6917H10.9915C13.1082 15.6917 14.1665 14.8001 14.3248 12.9001C14.3498 12.7001 14.3582 12.5168 14.3582 12.3251V8.99176C14.3582 6.66676 13.3165 5.62508 10.9915 5.62508H5.65818Z" fill="#195EE6"/>
<path d="M10.9914 11.8251C10.5247 11.8251 10.158 11.4501 10.158 10.9917C10.158 10.5334 10.533 10.1584 10.9914 10.1584C11.4497 10.1584 11.8247 10.5334 11.8247 10.9917C11.8247 11.4501 11.4497 11.8251 10.9914 11.8251Z" fill="#195EE6"/>
<path d="M8.32503 11.825C7.85837 11.825 7.4917 11.45 7.4917 10.9917C7.4917 10.5334 7.8667 10.1584 8.32503 10.1584C8.78337 10.1584 9.15837 10.5334 9.15837 10.9917C9.15837 11.45 8.7917 11.825 8.32503 11.825Z" fill="#195EE6"/>
<path d="M5.66634 11.825C5.19967 11.825 4.83301 11.45 4.83301 10.9917C4.83301 10.5334 5.20801 10.1584 5.66634 10.1584C6.12467 10.1584 6.49967 10.5334 6.49967 10.9917C6.49967 11.45 6.12467 11.825 5.66634 11.825Z" fill="#195EE6"/>
<path d="M14.95 13.5751C14.7833 13.5751 14.6166 13.5084 14.4999 13.3834C14.3666 13.2501 14.3083 13.0584 14.3333 12.8751C14.3583 12.7001 14.3666 12.5168 14.3666 12.3251V8.99176C14.3666 6.66676 13.325 5.62508 11 5.62508H5.6666C5.47494 5.62508 5.29163 5.63341 5.11663 5.65008C4.93329 5.67508 4.74161 5.6084 4.60828 5.4834C4.47495 5.35007 4.39994 5.16676 4.4166 4.98342C4.5666 3.18342 5.4916 1.04175 8.99994 1.04175H14.3333C17.35 1.04175 18.9499 2.64176 18.9499 5.65842V8.99176C18.9499 12.5001 16.8083 13.4168 15.0083 13.5751C14.9833 13.5751 14.9666 13.5751 14.95 13.5751ZM5.76663 4.37508L10.9915 4.37508C14.0082 4.37508 15.6082 5.97509 15.6082 8.99176L15.6083 12.2168C17.025 11.8668 17.6916 10.8251 17.6916 8.99176V5.65842C17.6916 3.33342 16.65 2.29175 14.325 2.29175H8.99162C7.15829 2.29175 6.12496 2.95841 5.76663 4.37508Z" fill="#195EE6"/>
</svg>
