<svg width="20" height="20" viewBox="0 0 20 20" fill="none" xmlns="http://www.w3.org/2000/svg">
<path d="M4.99984 7.50008C4.65817 7.50008 4.37484 7.21675 4.37484 6.87508V5.20842C4.37484 4.86675 4.65817 4.58342 4.99984 4.58342C5.3415 4.58342 5.62484 4.86675 5.62484 5.20842V6.87508C5.62484 7.21675 5.3415 7.50008 4.99984 7.50008Z" fill="#195EE6"/>
<path d="M8.33317 7.50008C7.9915 7.50008 7.70817 7.21675 7.70817 6.87508V5.20842C7.70817 4.86675 7.9915 4.58342 8.33317 4.58342C8.67484 4.58342 8.95817 4.86675 8.95817 5.20842V6.87508C8.95817 7.21675 8.67484 7.50008 8.33317 7.50008Z" fill="#195EE6"/>
<path d="M12.4998 18.9584H7.49984C2.97484 18.9584 1.0415 17.0251 1.0415 12.5001V7.50008C1.0415 2.97508 2.97484 1.04175 7.49984 1.04175H12.4998C17.0248 1.04175 18.9582 2.97508 18.9582 7.50008V12.5001C18.9582 17.0251 17.0248 18.9584 12.4998 18.9584ZM7.49984 2.29175C3.65817 2.29175 2.2915 3.65841 2.2915 7.50008V12.5001C2.2915 16.3417 3.65817 17.7084 7.49984 17.7084H12.4998C16.3415 17.7084 17.7082 16.3417 17.7082 12.5001V7.50008C17.7082 3.65841 16.3415 2.29175 12.4998 2.29175H7.49984Z" fill="#195EE6"/>
<path d="M4.99984 15.6251C4.65817 15.6251 4.37484 15.3417 4.37484 15.0001V13.3334C4.37484 12.9917 4.65817 12.7084 4.99984 12.7084C5.3415 12.7084 5.62484 12.9917 5.62484 13.3334V15.0001C5.62484 15.3417 5.3415 15.6251 4.99984 15.6251Z" fill="#195EE6"/>
<path d="M8.33317 15.6251C7.9915 15.6251 7.70817 15.3417 7.70817 15.0001V13.3334C7.70817 12.9917 7.9915 12.7084 8.33317 12.7084C8.67484 12.7084 8.95817 12.9917 8.95817 13.3334V15.0001C8.95817 15.3417 8.67484 15.6251 8.33317 15.6251Z" fill="#195EE6"/>
<path d="M14.9998 6.66675H11.6665C11.3248 6.66675 11.0415 6.38341 11.0415 6.04175C11.0415 5.70008 11.3248 5.41675 11.6665 5.41675H14.9998C15.3415 5.41675 15.6248 5.70008 15.6248 6.04175C15.6248 6.38341 15.3415 6.66675 14.9998 6.66675Z" fill="#195EE6"/>
<path d="M14.9998 14.7917H11.6665C11.3248 14.7917 11.0415 14.5084 11.0415 14.1667C11.0415 13.8251 11.3248 13.5417 11.6665 13.5417H14.9998C15.3415 13.5417 15.6248 13.8251 15.6248 14.1667C15.6248 14.5084 15.3415 14.7917 14.9998 14.7917Z" fill="#195EE6"/>
<path d="M18.3332 10.6251H1.6665C1.32484 10.6251 1.0415 10.3417 1.0415 10.0001C1.0415 9.65841 1.32484 9.37508 1.6665 9.37508H18.3332C18.6748 9.37508 18.9582 9.65841 18.9582 10.0001C18.9582 10.3417 18.6748 10.6251 18.3332 10.6251Z" fill="#195EE6"/>
</svg>
