<svg width="20" height="20" viewBox="0 0 20 20" fill="none" xmlns="http://www.w3.org/2000/svg">
<path d="M11.2498 7.7085H1.6665C1.32484 7.7085 1.0415 7.42516 1.0415 7.0835C1.0415 6.74183 1.32484 6.4585 1.6665 6.4585H11.2498C11.5915 6.4585 11.8748 6.74183 11.8748 7.0835C11.8748 7.42516 11.5915 7.7085 11.2498 7.7085Z" fill="#5B6171"/>
<path d="M6.66667 14.375H5C4.65833 14.375 4.375 14.0917 4.375 13.75C4.375 13.4083 4.65833 13.125 5 13.125H6.66667C7.00833 13.125 7.29167 13.4083 7.29167 13.75C7.29167 14.0917 7.00833 14.375 6.66667 14.375Z" fill="#5B6171"/>
<path d="M12.0833 14.375H8.75C8.40833 14.375 8.125 14.0917 8.125 13.75C8.125 13.4083 8.40833 13.125 8.75 13.125H12.0833C12.425 13.125 12.7083 13.4083 12.7083 13.75C12.7083 14.0917 12.425 14.375 12.0833 14.375Z" fill="#5B6171"/>
<path d="M14.6332 17.7082H5.3665C2.04984 17.7082 1.0415 16.7082 1.0415 13.4248V6.57484C1.0415 3.2915 2.04984 2.2915 5.3665 2.2915H11.2498C11.5915 2.2915 11.8748 2.57484 11.8748 2.9165C11.8748 3.25817 11.5915 3.5415 11.2498 3.5415H5.3665C2.74984 3.5415 2.2915 3.9915 2.2915 6.57484V13.4165C2.2915 15.9998 2.74984 16.4498 5.3665 16.4498H14.6248C17.2415 16.4498 17.6998 15.9998 17.6998 13.4165V10.0165C17.6998 9.67484 17.9832 9.3915 18.3248 9.3915C18.6665 9.3915 18.9498 9.67484 18.9498 10.0165V13.4165C18.9582 16.7082 17.9498 17.7082 14.6332 17.7082Z" fill="#5B6171"/>
<path d="M14.4252 7.45003C14.2668 7.45003 14.1085 7.3917 13.9835 7.2667C13.7418 7.02503 13.7418 6.62503 13.9835 6.38337L17.2252 3.1417C17.4668 2.90003 17.8668 2.90003 18.1085 3.1417C18.3502 3.38337 18.3502 3.78337 18.1085 4.02503L14.8668 7.2667C14.7418 7.3917 14.5835 7.45003 14.4252 7.45003Z" fill="#5B6171"/>
<path d="M17.6585 7.45003C17.5002 7.45003 17.3419 7.3917 17.2169 7.2667L13.9752 4.02503C13.7335 3.78337 13.7335 3.38337 13.9752 3.1417C14.2169 2.90003 14.6169 2.90003 14.8585 3.1417L18.1002 6.38337C18.3419 6.62503 18.3419 7.02503 18.1002 7.2667C17.9835 7.3917 17.8252 7.45003 17.6585 7.45003Z" fill="#5B6171"/>
</svg>
