<svg width="20" height="20" viewBox="0 0 20 20" fill="none" xmlns="http://www.w3.org/2000/svg">
<path d="M12.4087 15.1833H5.08365C4.65032 15.1833 4.24198 15.1417 3.87531 15.0584C3.68364 15.0334 3.45032 14.9667 3.20865 14.875C2.10032 14.4584 0.791992 13.4334 0.791992 10.8834V6.59168C0.791992 3.86668 2.35865 2.30005 5.08365 2.30005H12.4087C14.7087 2.30005 16.192 3.40002 16.592 5.40002C16.667 5.76669 16.7003 6.15835 16.7003 6.59168V10.8834C16.7003 13.625 15.142 15.1833 12.4087 15.1833ZM5.09197 3.56673C3.04197 3.56673 2.05031 4.55837 2.05031 6.60837V10.9001C2.05031 12.3917 2.57532 13.3084 3.65032 13.7167C3.81699 13.7751 3.97533 13.8167 4.12533 13.8417C4.44199 13.9084 4.7503 13.9417 5.09197 13.9417H12.417C14.467 13.9417 15.4586 12.9501 15.4586 10.9001V6.60837C15.4586 6.25837 15.4337 5.95003 15.3753 5.6667C15.092 4.25003 14.1253 3.56673 12.417 3.56673H5.09197Z" fill="#195EE6"/>
<path d="M14.9086 17.6833H7.58357C6.87524 17.6833 6.2419 17.5833 5.70023 17.375C4.47523 16.9167 3.67522 15.95 3.40022 14.5667C3.35856 14.3583 3.42524 14.1417 3.57524 14C3.72524 13.85 3.94191 13.7917 4.15024 13.8417C4.42524 13.9 4.73357 13.9333 5.08357 13.9333H12.4086C14.4586 13.9333 15.4502 12.9417 15.4502 10.8917V6.60001C15.4502 6.25001 15.4252 5.94167 15.3669 5.65834C15.3252 5.45001 15.3919 5.24168 15.5336 5.09168C15.6836 4.94168 15.8919 4.875 16.1002 4.925C18.1002 5.33334 19.2002 6.81668 19.2002 9.10001V13.3917C19.2002 16.125 17.6419 17.6833 14.9086 17.6833ZM4.93358 15.1833C5.20024 15.6667 5.60024 16.0084 6.15024 16.2084C6.55024 16.3584 7.03356 16.4333 7.59189 16.4333H14.9169C16.9669 16.4333 17.9586 15.4417 17.9586 13.3917V9.10001C17.9586 7.78335 17.5502 6.90835 16.7086 6.45002C16.7086 6.50002 16.7086 6.55001 16.7086 6.60001V10.8917C16.7086 13.6167 15.1419 15.1833 12.4169 15.1833H5.09189C5.03355 15.1833 4.98358 15.1833 4.93358 15.1833Z" fill="#195EE6"/>
<path d="M8.75006 11.5751C7.19173 11.5751 5.92505 10.3084 5.92505 8.75004C5.92505 7.19171 7.19173 5.92503 8.75006 5.92503C10.3084 5.92503 11.5751 7.19171 11.5751 8.75004C11.5751 10.3084 10.3084 11.5751 8.75006 11.5751ZM8.75006 7.17503C7.88339 7.17503 7.17505 7.88337 7.17505 8.75004C7.17505 9.61671 7.88339 10.3251 8.75006 10.3251C9.61673 10.3251 10.3251 9.61671 10.3251 8.75004C10.3251 7.88337 9.61673 7.17503 8.75006 7.17503Z" fill="#195EE6"/>
<path d="M3.98372 11.2084C3.64206 11.2084 3.35872 10.9251 3.35872 10.5834V6.91675C3.35872 6.57508 3.64206 6.29175 3.98372 6.29175C4.32539 6.29175 4.60872 6.57508 4.60872 6.91675V10.5834C4.60872 10.9251 4.33372 11.2084 3.98372 11.2084Z" fill="#195EE6"/>
<path d="M13.5085 11.2084C13.1668 11.2084 12.8835 10.9251 12.8835 10.5834V6.91675C12.8835 6.57508 13.1668 6.29175 13.5085 6.29175C13.8501 6.29175 14.1335 6.57508 14.1335 6.91675V10.5834C14.1335 10.9251 13.8585 11.2084 13.5085 11.2084Z" fill="#195EE6"/>
</svg>
