<svg width="20" height="20" viewBox="0 0 20 20" fill="none" xmlns="http://www.w3.org/2000/svg">
<path d="M11.2498 7.70842H1.6665C1.32484 7.70842 1.0415 7.42508 1.0415 7.08342C1.0415 6.74175 1.32484 6.45842 1.6665 6.45842H11.2498C11.5915 6.45842 11.8748 6.74175 11.8748 7.08342C11.8748 7.42508 11.5915 7.70842 11.2498 7.70842Z" fill="#195EE6"/>
<path d="M6.6665 14.3751H4.99984C4.65817 14.3751 4.37484 14.0917 4.37484 13.7501C4.37484 13.4084 4.65817 13.1251 4.99984 13.1251H6.6665C7.00817 13.1251 7.2915 13.4084 7.2915 13.7501C7.2915 14.0917 7.00817 14.3751 6.6665 14.3751Z" fill="#195EE6"/>
<path d="M12.0832 14.3751H8.74984C8.40817 14.3751 8.12484 14.0917 8.12484 13.7501C8.12484 13.4084 8.40817 13.1251 8.74984 13.1251H12.0832C12.4248 13.1251 12.7082 13.4084 12.7082 13.7501C12.7082 14.0917 12.4248 14.3751 12.0832 14.3751Z" fill="#195EE6"/>
<path d="M14.6332 17.7084H5.3665C2.04984 17.7084 1.0415 16.7084 1.0415 13.4251V6.57508C1.0415 3.29175 2.04984 2.29175 5.3665 2.29175H11.2498C11.5915 2.29175 11.8748 2.57508 11.8748 2.91675C11.8748 3.25841 11.5915 3.54175 11.2498 3.54175H5.3665C2.74984 3.54175 2.2915 3.99175 2.2915 6.57508V13.4167C2.2915 16.0001 2.74984 16.4501 5.3665 16.4501H14.6248C17.2415 16.4501 17.6998 16.0001 17.6998 13.4167V10.0167C17.6998 9.67508 17.9832 9.39175 18.3248 9.39175C18.6665 9.39175 18.9498 9.67508 18.9498 10.0167V13.4167C18.9582 16.7084 17.9498 17.7084 14.6332 17.7084Z" fill="#195EE6"/>
<path d="M18.3332 5.83341H13.7498C13.4082 5.83341 13.1248 5.55008 13.1248 5.20841C13.1248 4.86675 13.4082 4.58341 13.7498 4.58341H18.3332C18.6748 4.58341 18.9582 4.86675 18.9582 5.20841C18.9582 5.55008 18.6748 5.83341 18.3332 5.83341Z" fill="#195EE6"/>
<path d="M16.0415 8.12508C15.6998 8.12508 15.4165 7.84175 15.4165 7.50008V2.91675C15.4165 2.57508 15.6998 2.29175 16.0415 2.29175C16.3832 2.29175 16.6665 2.57508 16.6665 2.91675V7.50008C16.6665 7.84175 16.3832 8.12508 16.0415 8.12508Z" fill="#195EE6"/>
</svg>
