<svg width="20" height="20" viewBox="0 0 20 20" fill="none" xmlns="http://www.w3.org/2000/svg">
<path d="M10 10.6251C7.35833 10.6251 5.20833 8.47508 5.20833 5.83341C5.20833 3.19175 7.35833 1.04175 10 1.04175C12.6417 1.04175 14.7917 3.19175 14.7917 5.83341C14.7917 8.47508 12.6417 10.6251 10 10.6251ZM10 2.29175C8.05 2.29175 6.45833 3.88341 6.45833 5.83341C6.45833 7.78341 8.05 9.37508 10 9.37508C11.95 9.37508 13.5417 7.78341 13.5417 5.83341C13.5417 3.88341 11.95 2.29175 10 2.29175Z" fill="#195EE6"/>
<path d="M17.1585 18.9584C16.8168 18.9584 16.5335 18.6751 16.5335 18.3334C16.5335 15.4584 13.6001 13.1251 10.0001 13.1251C6.40013 13.1251 3.4668 15.4584 3.4668 18.3334C3.4668 18.6751 3.18346 18.9584 2.8418 18.9584C2.50013 18.9584 2.2168 18.6751 2.2168 18.3334C2.2168 14.7751 5.70846 11.8751 10.0001 11.8751C14.2918 11.8751 17.7835 14.7751 17.7835 18.3334C17.7835 18.6751 17.5001 18.9584 17.1585 18.9584Z" fill="#195EE6"/>
</svg>
