<svg width="20" height="20" viewBox="0 0 20 20" fill="none" xmlns="http://www.w3.org/2000/svg">
<path d="M13.3333 18.5999C13.05 18.5999 12.775 18.5166 12.5333 18.3582L8.98329 15.9915H7.4083C7.21664 15.9915 7.03328 15.8999 6.91662 15.7499C6.79995 15.5916 6.7583 15.3915 6.8083 15.2082C6.8583 15.0082 6.8833 14.8082 6.8833 14.5915C6.8833 13.9249 6.6333 13.2832 6.1833 12.7832C5.67497 12.2082 4.94997 11.8832 4.17497 11.8832C3.4333 11.8832 2.74995 12.1749 2.23329 12.6999C2.07495 12.8665 1.83329 12.9249 1.61663 12.8665C1.39996 12.7999 1.22496 12.6249 1.17496 12.3999C1.09163 12.0332 1.04997 11.6332 1.04997 11.1999V6.19987C1.04997 3.3332 2.97497 1.4082 5.84163 1.4082H14.175C17.0416 1.4082 18.9666 3.3332 18.9666 6.19987V11.1999C18.9666 12.5915 18.5083 13.7915 17.6333 14.6665C16.9 15.3998 15.925 15.8416 14.8 15.9582V17.1415C14.8 17.6832 14.4999 18.1749 14.0249 18.4332C13.7999 18.5415 13.5666 18.5999 13.3333 18.5999ZM8.12496 14.7332H9.16663C9.29163 14.7332 9.4083 14.7665 9.51664 14.8415L13.225 17.3166C13.3166 17.3749 13.3916 17.3499 13.4333 17.3249C13.475 17.2999 13.55 17.2499 13.55 17.1332V15.3582C13.55 15.0165 13.8333 14.7332 14.175 14.7332C15.2333 14.7332 16.125 14.3999 16.75 13.7749C17.3833 13.1416 17.7166 12.2499 17.7166 11.1915V6.19153C17.7166 4.04153 16.325 2.64986 14.175 2.64986H5.84163C3.69163 2.64986 2.29997 4.04153 2.29997 6.19153V11.0915C2.86663 10.7832 3.5083 10.6249 4.17497 10.6249C5.3083 10.6249 6.3833 11.1082 7.11663 11.9415C7.76663 12.6665 8.1333 13.5999 8.1333 14.5832C8.12497 14.6332 8.12496 14.6832 8.12496 14.7332Z" fill="#195EE6"/>
<path d="M4.16683 18.5416C1.9835 18.5416 0.208496 16.7666 0.208496 14.5833C0.208496 13.3666 0.750162 12.2416 1.69183 11.4916C2.39183 10.9332 3.27516 10.6249 4.16683 10.6249C6.35016 10.6249 8.12516 12.3999 8.12516 14.5833C8.12516 15.7166 7.6335 16.7999 6.77517 17.5499C6.05017 18.1916 5.12516 18.5416 4.16683 18.5416ZM4.16683 11.8749C3.55016 11.8749 2.96683 12.0832 2.47516 12.4749C1.8335 12.9832 1.4585 13.7583 1.4585 14.5833C1.4585 16.0749 2.67516 17.2916 4.16683 17.2916C4.81683 17.2916 5.45016 17.0499 5.95849 16.6166C6.54182 16.0999 6.87516 15.3666 6.87516 14.5833C6.87516 13.0916 5.6585 11.8749 4.16683 11.8749Z" fill="#195EE6"/>
<path d="M3.33341 16.0416C3.12507 16.0416 2.91673 15.9333 2.80006 15.7416C2.62506 15.4416 2.71674 15.0582 3.01674 14.8832L3.75842 14.4416V13.5416C3.75842 13.1999 4.04175 12.9166 4.38342 12.9166C4.72508 12.9166 5.00842 13.1999 5.00842 13.5416V14.7916C5.00842 15.0083 4.89174 15.2166 4.7084 15.3249L3.66674 15.9499C3.55007 16.0166 3.44174 16.0416 3.33341 16.0416Z" fill="#195EE6"/>
<path d="M12.9168 9.37492H7.0835C6.74183 9.37492 6.4585 9.09159 6.4585 8.74992C6.4585 8.40825 6.74183 8.12492 7.0835 8.12492H12.9168C13.2585 8.12492 13.5418 8.40825 13.5418 8.74992C13.5418 9.09159 13.2585 9.37492 12.9168 9.37492Z" fill="#195EE6"/>
</svg>
