<svg width="20" height="20" viewBox="0 0 20 20" fill="none" xmlns="http://www.w3.org/2000/svg">
<path d="M14.9997 6.59176C14.9747 6.59176 14.958 6.59176 14.933 6.59176H14.8914C13.3164 6.54176 12.1414 5.32509 12.1414 3.82509C12.1414 2.29176 13.3914 1.05009 14.9164 1.05009C16.4414 1.05009 17.6914 2.30009 17.6914 3.82509C17.683 5.33342 16.508 6.55009 15.008 6.60009C15.008 6.59176 15.008 6.59176 14.9997 6.59176ZM14.9164 2.29176C14.0747 2.29176 13.3914 2.9751 13.3914 3.81676C13.3914 4.64176 14.033 5.30843 14.858 5.34176C14.8664 5.33343 14.933 5.33343 15.008 5.34176C15.8164 5.3001 16.4414 4.63343 16.4497 3.81676C16.4497 2.9751 15.7664 2.29176 14.9164 2.29176Z" fill="#195EE6"/>
<path d="M15.0082 12.7334C14.6832 12.7334 14.3582 12.7084 14.0332 12.6501C13.6915 12.5918 13.4665 12.2668 13.5248 11.9251C13.5832 11.5834 13.9082 11.3584 14.2498 11.4168C15.2748 11.5918 16.3582 11.4001 17.0832 10.9168C17.4748 10.6584 17.6832 10.3334 17.6832 10.0084C17.6832 9.68343 17.4665 9.36677 17.0832 9.10843C16.3582 8.6251 15.2582 8.43343 14.2248 8.61677C13.8832 8.68343 13.5582 8.4501 13.4998 8.10843C13.4415 7.76677 13.6665 7.44177 14.0082 7.38344C15.3665 7.14177 16.7748 7.4001 17.7748 8.06677C18.5082 8.55843 18.9332 9.25843 18.9332 10.0084C18.9332 10.7501 18.5165 11.4584 17.7748 11.9584C17.0165 12.4584 16.0332 12.7334 15.0082 12.7334Z" fill="#195EE6"/>
<path d="M4.97482 6.59175C4.96649 6.59175 4.95816 6.59175 4.95816 6.59175C3.45816 6.54175 2.28315 5.32508 2.27482 3.82508C2.27482 2.29174 3.52482 1.04175 5.04982 1.04175C6.57482 1.04175 7.82482 2.29175 7.82482 3.81675C7.82482 5.32508 6.64982 6.54175 5.14982 6.59175L4.97482 5.96675L5.03316 6.59175C5.01649 6.59175 4.99149 6.59175 4.97482 6.59175ZM5.05815 5.34175C5.10815 5.34175 5.14982 5.34175 5.19982 5.35008C5.94149 5.31675 6.59149 4.65008 6.59149 3.82508C6.59149 2.98341 5.90816 2.30008 5.06649 2.30008C4.22482 2.30008 3.54149 2.98341 3.54149 3.82508C3.54149 4.64174 4.17482 5.30008 4.98315 5.35008C4.99149 5.34175 5.02482 5.34175 5.05815 5.34175Z" fill="#195EE6"/>
<path d="M4.9665 12.7334C3.9415 12.7334 2.95817 12.4584 2.19984 11.9584C1.4665 11.4668 1.0415 10.7584 1.0415 10.0084C1.0415 9.26677 1.4665 8.55843 2.19984 8.06677C3.19984 7.4001 4.60817 7.14177 5.9665 7.38344C6.30817 7.44177 6.53317 7.76677 6.47484 8.10843C6.4165 8.4501 6.09151 8.68343 5.74984 8.61677C4.71651 8.43343 3.62484 8.6251 2.89151 9.10843C2.49984 9.36677 2.2915 9.68343 2.2915 10.0084C2.2915 10.3334 2.50817 10.6584 2.89151 10.9168C3.61651 11.4001 4.69984 11.5918 5.72484 11.4168C6.0665 11.3584 6.39151 11.5918 6.44984 11.9251C6.50817 12.2668 6.28317 12.5918 5.9415 12.6501C5.61651 12.7084 5.2915 12.7334 4.9665 12.7334Z" fill="#195EE6"/>
<path d="M9.99969 12.8167C9.97469 12.8167 9.95802 12.8167 9.93302 12.8167H9.89136C8.31636 12.7667 7.14136 11.5501 7.14136 10.0501C7.14136 8.51673 8.39136 7.27507 9.91636 7.27507C11.4414 7.27507 12.6914 8.52507 12.6914 10.0501C12.683 11.5584 11.508 12.7751 10.008 12.8251C10.008 12.8167 10.008 12.8167 9.99969 12.8167ZM9.91636 8.51674C9.07469 8.51674 8.39136 9.20007 8.39136 10.0417C8.39136 10.8667 9.03303 11.5334 9.85803 11.5667C9.86636 11.5584 9.93302 11.5584 10.008 11.5667C10.8164 11.5251 11.4414 10.8584 11.4497 10.0417C11.4497 9.2084 10.7664 8.51674 9.91636 8.51674Z" fill="#195EE6"/>
<path d="M9.99966 18.9667C8.99966 18.9667 7.99966 18.7084 7.22466 18.1834C6.49132 17.6917 6.06633 16.9917 6.06633 16.2417C6.06633 15.5001 6.48299 14.7834 7.22466 14.2917C8.78299 13.2584 11.2247 13.2584 12.7747 14.2917C13.508 14.7834 13.933 15.4834 13.933 16.2334C13.933 16.9751 13.5163 17.6917 12.7747 18.1834C11.9997 18.7001 10.9997 18.9667 9.99966 18.9667ZM7.91633 15.3417C7.52466 15.6001 7.31633 15.9251 7.31633 16.2501C7.31633 16.5751 7.53299 16.8917 7.91633 17.1501C9.04133 17.9084 10.9497 17.9084 12.0747 17.1501C12.4663 16.8917 12.6747 16.5667 12.6747 16.2417C12.6747 15.9167 12.458 15.6001 12.0747 15.3417C10.958 14.5834 9.04966 14.5917 7.91633 15.3417Z" fill="#195EE6"/>
</svg>
