<svg width="20" height="20" viewBox="0 0 20 20" fill="none" xmlns="http://www.w3.org/2000/svg">
<path d="M12.0002 17.2916H8.00016C4.34183 17.2916 2.7085 15.6583 2.7085 11.9999V7.99992C2.7085 4.34159 4.34183 2.70825 8.00016 2.70825H12.0002C15.6585 2.70825 17.2918 4.34159 17.2918 7.99992V11.9999C17.2918 15.6583 15.6585 17.2916 12.0002 17.2916ZM8.00016 3.95825C5.01683 3.95825 3.9585 5.01659 3.9585 7.99992V11.9999C3.9585 14.9833 5.01683 16.0416 8.00016 16.0416H12.0002C14.9835 16.0416 16.0418 14.9833 16.0418 11.9999V7.99992C16.0418 5.01659 14.9835 3.95825 12.0002 3.95825H8.00016Z" fill="#5B6171"/>
<path d="M11.2502 14.7918H8.75016C6.3335 14.7918 5.2085 13.6668 5.2085 11.2502V8.75016C5.2085 6.3335 6.3335 5.2085 8.75016 5.2085H11.2502C13.6668 5.2085 14.7918 6.3335 14.7918 8.75016V11.2502C14.7918 13.6668 13.6668 14.7918 11.2502 14.7918ZM8.75016 6.4585C7.01683 6.4585 6.4585 7.01683 6.4585 8.75016V11.2502C6.4585 12.9835 7.01683 13.5418 8.75016 13.5418H11.2502C12.9835 13.5418 13.5418 12.9835 13.5418 11.2502V8.75016C13.5418 7.01683 12.9835 6.4585 11.2502 6.4585H8.75016Z" fill="#5B6171"/>
<path d="M6.6748 3.95841C6.3248 3.95841 6.0498 3.67508 6.0498 3.33341V1.66675C6.0498 1.32508 6.33314 1.04175 6.6748 1.04175C7.01647 1.04175 7.2998 1.32508 7.2998 1.66675V3.33341C7.2998 3.67508 7.01647 3.95841 6.6748 3.95841Z" fill="#5B6171"/>
<path d="M10 3.95841C9.65833 3.95841 9.375 3.67508 9.375 3.33341V1.66675C9.375 1.32508 9.65833 1.04175 10 1.04175C10.3417 1.04175 10.625 1.32508 10.625 1.66675V3.33341C10.625 3.67508 10.3417 3.95841 10 3.95841Z" fill="#5B6171"/>
<path d="M13.3335 3.95841C12.9918 3.95841 12.7085 3.67508 12.7085 3.33341V1.66675C12.7085 1.32508 12.9918 1.04175 13.3335 1.04175C13.6752 1.04175 13.9585 1.32508 13.9585 1.66675V3.33341C13.9585 3.67508 13.6752 3.95841 13.3335 3.95841Z" fill="#5B6171"/>
<path d="M18.3332 7.2915H16.6665C16.3248 7.2915 16.0415 7.00817 16.0415 6.6665C16.0415 6.32484 16.3248 6.0415 16.6665 6.0415H18.3332C18.6748 6.0415 18.9582 6.32484 18.9582 6.6665C18.9582 7.00817 18.6832 7.2915 18.3332 7.2915Z" fill="#5B6171"/>
<path d="M18.3332 10.625H16.6665C16.3248 10.625 16.0415 10.3417 16.0415 10C16.0415 9.65833 16.3248 9.375 16.6665 9.375H18.3332C18.6748 9.375 18.9582 9.65833 18.9582 10C18.9582 10.3417 18.6832 10.625 18.3332 10.625Z" fill="#5B6171"/>
<path d="M18.3332 13.9585H16.6665C16.3248 13.9585 16.0415 13.6752 16.0415 13.3335C16.0415 12.9918 16.3248 12.7085 16.6665 12.7085H18.3332C18.6748 12.7085 18.9582 12.9918 18.9582 13.3335C18.9582 13.6752 18.6832 13.9585 18.3332 13.9585Z" fill="#5B6171"/>
<path d="M13.3335 18.9582C12.9918 18.9582 12.7085 18.6748 12.7085 18.3332V16.6665C12.7085 16.3248 12.9918 16.0415 13.3335 16.0415C13.6752 16.0415 13.9585 16.3248 13.9585 16.6665V18.3332C13.9585 18.6748 13.6752 18.9582 13.3335 18.9582Z" fill="#5B6171"/>
<path d="M10.0083 18.9582C9.66663 18.9582 9.3833 18.6748 9.3833 18.3332V16.6665C9.3833 16.3248 9.66663 16.0415 10.0083 16.0415C10.35 16.0415 10.6333 16.3248 10.6333 16.6665V18.3332C10.6333 18.6748 10.35 18.9582 10.0083 18.9582Z" fill="#5B6171"/>
<path d="M6.6748 18.9582C6.33314 18.9582 6.0498 18.6748 6.0498 18.3332V16.6665C6.0498 16.3248 6.33314 16.0415 6.6748 16.0415C7.01647 16.0415 7.2998 16.3248 7.2998 16.6665V18.3332C7.2998 18.6748 7.01647 18.9582 6.6748 18.9582Z" fill="#5B6171"/>
<path d="M3.33317 7.2915H1.6665C1.32484 7.2915 1.0415 7.0165 1.0415 6.6665C1.0415 6.3165 1.32484 6.0415 1.6665 6.0415H3.33317C3.67484 6.0415 3.95817 6.32484 3.95817 6.6665C3.95817 7.00817 3.68317 7.2915 3.33317 7.2915Z" fill="#5B6171"/>
<path d="M3.33317 10.625H1.6665C1.32484 10.625 1.0415 10.3417 1.0415 10C1.0415 9.65833 1.32484 9.375 1.6665 9.375H3.33317C3.67484 9.375 3.95817 9.65833 3.95817 10C3.95817 10.3417 3.68317 10.625 3.33317 10.625Z" fill="#5B6171"/>
<path d="M3.33317 13.9585H1.6665C1.32484 13.9585 1.0415 13.6752 1.0415 13.3335C1.0415 12.9918 1.32484 12.7085 1.6665 12.7085H3.33317C3.67484 12.7085 3.95817 12.9918 3.95817 13.3335C3.95817 13.6752 3.68317 13.9585 3.33317 13.9585Z" fill="#5B6171"/>
<path d="M9.99986 12.5417C9.89152 12.5417 9.78319 12.5167 9.69152 12.4584C9.39152 12.2834 9.29152 11.9001 9.45819 11.6084L10.0249 10.6251H9.53319C9.13319 10.6251 8.80819 10.4501 8.63319 10.1501C8.45819 9.85008 8.47486 9.47508 8.66652 9.13341L9.44986 7.76675C9.62486 7.46675 10.0082 7.36675 10.2999 7.53341C10.5999 7.70841 10.6999 8.09175 10.5332 8.38341L9.96652 9.36675H10.4582C10.8582 9.36675 11.1832 9.54175 11.3582 9.84175C11.5332 10.1417 11.5165 10.5167 11.3249 10.8584L10.5415 12.2251C10.4249 12.4334 10.2165 12.5417 9.99986 12.5417Z" fill="#5B6171"/>
</svg>
