<svg width="36" height="36" viewBox="0 0 36 36" fill="none" xmlns="http://www.w3.org/2000/svg">
<rect width="36" height="36" rx="8" fill="#F8F9FC"/>
<path d="M21.3337 26.9584H10.5003C9.70033 26.9584 9.04199 26.3001 9.04199 25.5001V14.6667C9.04199 10.9834 10.9837 9.04175 14.667 9.04175H21.3337C25.017 9.04175 26.9587 10.9834 26.9587 14.6667V21.3334C26.9587 25.0167 25.017 26.9584 21.3337 26.9584ZM14.667 10.2917C11.6837 10.2917 10.292 11.6834 10.292 14.6667V25.5001C10.292 25.6167 10.3837 25.7084 10.5003 25.7084H21.3337C24.317 25.7084 25.7087 24.3167 25.7087 21.3334V14.6667C25.7087 11.6834 24.317 10.2917 21.3337 10.2917H14.667Z" fill="#B3C2E2"/>
<path d="M20.917 18.6251H15.0837C14.742 18.6251 14.4587 18.3417 14.4587 18.0001C14.4587 17.6584 14.742 17.3751 15.0837 17.3751H20.917C21.2587 17.3751 21.542 17.6584 21.542 18.0001C21.542 18.3417 21.2587 18.6251 20.917 18.6251Z" fill="#B3C2E2"/>
<path d="M18.0003 21.5417C17.6587 21.5417 17.3753 21.2584 17.3753 20.9167V15.0834C17.3753 14.7417 17.6587 14.4584 18.0003 14.4584C18.342 14.4584 18.6253 14.7417 18.6253 15.0834V20.9167C18.6253 21.2584 18.342 21.5417 18.0003 21.5417Z" fill="#B3C2E2"/>
</svg>
