<svg width="20" height="20" viewBox="0 0 20 20" fill="none" xmlns="http://www.w3.org/2000/svg">
<path d="M9.99984 18.9582C5.05817 18.9582 1.0415 14.9415 1.0415 9.99984C1.0415 5.05817 5.05817 1.0415 9.99984 1.0415C14.9415 1.0415 18.9582 5.05817 18.9582 9.99984C18.9582 14.9415 14.9415 18.9582 9.99984 18.9582ZM9.99984 2.2915C5.74984 2.2915 2.2915 5.74984 2.2915 9.99984C2.2915 14.2498 5.74984 17.7082 9.99984 17.7082C14.2498 17.7082 17.7082 14.2498 17.7082 9.99984C17.7082 5.74984 14.2498 2.2915 9.99984 2.2915Z" fill="#195EE6"/>
<path d="M11.8336 10.6249H7.31689C6.97523 10.6249 6.69189 10.3416 6.69189 9.99993V6.3916C6.69189 6.04993 6.97523 5.7666 7.31689 5.7666H11.8336C13.1252 5.7666 14.2669 6.89994 14.2669 8.19993C14.2669 9.53327 13.1752 10.6249 11.8336 10.6249ZM7.94189 9.37493H11.8336C12.4836 9.37493 13.0169 8.8416 13.0169 8.1916C13.0169 7.6416 12.5002 7.00827 11.8336 7.00827H7.94189V9.37493Z" fill="#195EE6"/>
<path d="M12.4752 14.2333H7.31689C6.97523 14.2333 6.69189 13.95 6.69189 13.6083V10C6.69189 9.65833 6.97523 9.375 7.31689 9.375H12.4752C13.9586 9.375 15.1669 10.4667 15.1669 11.8083C15.1669 13.15 13.9586 14.2333 12.4752 14.2333ZM7.94189 12.9833H12.4752C13.2669 12.9833 13.9169 12.45 13.9169 11.8C13.9169 11.15 13.2752 10.6167 12.4752 10.6167H7.94189V12.9833Z" fill="#195EE6"/>
<path d="M10.4751 16.0417C10.1334 16.0417 9.8501 15.7584 9.8501 15.4167V13.6084C9.8501 13.2667 10.1334 12.9834 10.4751 12.9834C10.8168 12.9834 11.1001 13.2667 11.1001 13.6084V15.4167C11.1001 15.7584 10.8251 16.0417 10.4751 16.0417Z" fill="#195EE6"/>
<path d="M8.2251 16.0417C7.88343 16.0417 7.6001 15.7584 7.6001 15.4167V13.6084C7.6001 13.2667 7.88343 12.9834 8.2251 12.9834C8.56676 12.9834 8.8501 13.2667 8.8501 13.6084V15.4167C8.8501 15.7584 8.56676 16.0417 8.2251 16.0417Z" fill="#195EE6"/>
<path d="M10.4751 7.01683C10.1334 7.01683 9.8501 6.7335 9.8501 6.39183V4.5835C9.8501 4.24183 10.1334 3.9585 10.4751 3.9585C10.8168 3.9585 11.1001 4.24183 11.1001 4.5835V6.39183C11.1001 6.7335 10.8251 7.01683 10.4751 7.01683Z" fill="#195EE6"/>
<path d="M8.2251 7.01683C7.88343 7.01683 7.6001 6.7335 7.6001 6.39183V4.5835C7.6001 4.24183 7.88343 3.9585 8.2251 3.9585C8.56676 3.9585 8.8501 4.24183 8.8501 4.5835V6.39183C8.8501 6.7335 8.56676 7.01683 8.2251 7.01683Z" fill="#195EE6"/>
<path d="M9.03333 7.0166H5.875C5.53333 7.0166 5.25 6.73327 5.25 6.3916C5.25 6.04993 5.53333 5.7666 5.875 5.7666H9.03333C9.375 5.7666 9.65833 6.04993 9.65833 6.3916C9.65833 6.73327 9.38333 7.0166 9.03333 7.0166Z" fill="#195EE6"/>
<path d="M9.03333 14.2334H5.875C5.53333 14.2334 5.25 13.9501 5.25 13.6084C5.25 13.2667 5.53333 12.9834 5.875 12.9834H9.03333C9.375 12.9834 9.65833 13.2667 9.65833 13.6084C9.65833 13.9501 9.38333 14.2334 9.03333 14.2334Z" fill="#195EE6"/>
</svg>
