<svg width="24" height="24" viewBox="0 0 24 24" fill="none" xmlns="http://www.w3.org/2000/svg">
<path d="M16.772 8.28769L8.28676 16.773C7.99684 17.0629 7.51601 17.0629 7.2261 16.773C6.93618 16.4831 6.93618 16.0022 7.2261 15.7123L15.7114 7.22703C16.0013 6.93712 16.4821 6.93712 16.772 7.22703C17.062 7.51694 17.062 7.99778 16.772 8.28769Z" fill="#DC2626"/>
<path d="M16.772 16.773C16.4821 17.0629 16.0013 17.0629 15.7114 16.773L7.2261 8.28769C6.93618 7.99778 6.93618 7.51694 7.2261 7.22703C7.51601 6.93712 7.99684 6.93712 8.28676 7.22703L16.772 15.7123C17.062 16.0022 17.062 16.4831 16.772 16.773Z" fill="#DC2626"/>
</svg>
