<svg width="64" height="64" viewBox="0 0 64 64" fill="none" xmlns="http://www.w3.org/2000/svg">
<rect x="0.5" y="0.5" width="63" height="63" rx="31.5" fill="#005EFF" fill-opacity="0.1"/>
<rect x="0.5" y="0.5" width="63" height="63" rx="31.5" stroke="#005EFF"/>
<path d="M45.3337 23.3333C45.3337 21.8605 44.1397 20.6666 42.667 20.6666H21.3337C19.8609 20.6666 18.667 21.8605 18.667 23.3333V40.6666C18.667 42.1394 19.8609 43.3333 21.3337 43.3333H42.667C44.1398 43.3333 45.3337 42.1394 45.3337 40.6666V23.3333ZM39.2937 28.7866L35.1203 32.12C34.2403 32.8266 33.1203 33.1733 32.0003 33.1733C30.8803 33.1733 29.747 32.8266 28.8803 32.12L24.707 28.7866C24.2803 28.44 24.2137 27.8 24.547 27.3733C24.8937 26.9466 25.5203 26.8666 25.947 27.2133L30.1203 30.5466C31.1337 31.36 32.8537 31.36 33.867 30.5466L38.0403 27.2133C38.467 26.8666 39.107 26.9333 39.4403 27.3733C39.787 27.8 39.7203 28.44 39.2937 28.7866Z" fill="#005EFF"/>
</svg>
