<svg width="20" height="20" viewBox="0 0 20 20" fill="none" xmlns="http://www.w3.org/2000/svg">
<path d="M13.3337 18.9584H2.50033C1.70033 18.9584 1.04199 18.3001 1.04199 17.5001V6.66675C1.04199 2.98341 2.98366 1.04175 6.66699 1.04175H13.3337C17.017 1.04175 18.9587 2.98341 18.9587 6.66675V13.3334C18.9587 17.0167 17.017 18.9584 13.3337 18.9584ZM6.66699 2.29175C3.68366 2.29175 2.29199 3.68341 2.29199 6.66675V17.5001C2.29199 17.6167 2.38366 17.7084 2.50033 17.7084H13.3337C16.317 17.7084 17.7087 16.3167 17.7087 13.3334V6.66675C17.7087 3.68341 16.317 2.29175 13.3337 2.29175H6.66699Z" fill="#005EFF"/>
<path d="M13.3337 18.9584H2.50033C1.70033 18.9584 1.04199 18.3001 1.04199 17.5001V6.66675C1.04199 2.98341 2.98366 1.04175 6.66699 1.04175H13.3337C17.017 1.04175 18.9587 2.98341 18.9587 6.66675V13.3334C18.9587 17.0167 17.017 18.9584 13.3337 18.9584ZM6.66699 2.29175C3.68366 2.29175 2.29199 3.68341 2.29199 6.66675V17.5001C2.29199 17.6167 2.38366 17.7084 2.50033 17.7084H13.3337C16.317 17.7084 17.7087 16.3167 17.7087 13.3334V6.66675C17.7087 3.68341 16.317 2.29175 13.3337 2.29175H6.66699Z" fill="#005EFF"/>
<path d="M14.167 8.54175H5.83366C5.49199 8.54175 5.20866 8.25841 5.20866 7.91675C5.20866 7.57508 5.49199 7.29175 5.83366 7.29175H14.167C14.5087 7.29175 14.792 7.57508 14.792 7.91675C14.792 8.25841 14.5087 8.54175 14.167 8.54175Z" fill="#005EFF"/>
<path d="M14.167 8.54175H5.83366C5.49199 8.54175 5.20866 8.25841 5.20866 7.91675C5.20866 7.57508 5.49199 7.29175 5.83366 7.29175H14.167C14.5087 7.29175 14.792 7.57508 14.792 7.91675C14.792 8.25841 14.5087 8.54175 14.167 8.54175Z" fill="#005EFF"/>
<path d="M11.667 12.7084H5.83366C5.49199 12.7084 5.20866 12.4251 5.20866 12.0834C5.20866 11.7417 5.49199 11.4584 5.83366 11.4584H11.667C12.0087 11.4584 12.292 11.7417 12.292 12.0834C12.292 12.4251 12.0087 12.7084 11.667 12.7084Z" fill="#005EFF"/>
<path d="M11.667 12.7084H5.83366C5.49199 12.7084 5.20866 12.4251 5.20866 12.0834C5.20866 11.7417 5.49199 11.4584 5.83366 11.4584H11.667C12.0087 11.4584 12.292 11.7417 12.292 12.0834C12.292 12.4251 12.0087 12.7084 11.667 12.7084Z" fill="#005EFF"/>
</svg>
