<svg width="32" height="32" viewBox="0 0 32 32" fill="none" xmlns="http://www.w3.org/2000/svg">
<path d="M27.3337 7.99992L20.8575 1.33325V7.33325C20.8575 7.70144 21.1559 7.99992 21.5241 7.99992H27.3337Z" fill="#FF4F4F"/>
<path d="M7.33366 1.33325C5.8609 1.33325 4.66699 2.52716 4.66699 3.99992V27.9999C4.66699 29.4727 5.8609 30.6666 7.33366 30.6666H24.667C26.1398 30.6666 27.3337 29.4727 27.3337 27.9999V7.99992H21.5241C21.1559 7.99992 20.8575 7.70144 20.8575 7.33325V1.33325H7.33366Z" fill="#FF4F4F" fill-opacity="0.1"/>
<path d="M27.3337 7.99992V27.9999C27.3337 29.4727 26.1398 30.6666 24.667 30.6666H7.33366C5.8609 30.6666 4.66699 29.4727 4.66699 27.9999V3.99992C4.66699 2.52716 5.8609 1.33325 7.33366 1.33325H20.8575M27.3337 7.99992L20.8575 1.33325M27.3337 7.99992H21.5241C21.1559 7.99992 20.8575 7.70144 20.8575 7.33325V1.33325" stroke="#FF4F4F" stroke-width="1.33333" stroke-linejoin="round"/>
<path d="M27.3337 7.99992L20.8575 1.33325V7.33325C20.8575 7.70144 21.1559 7.99992 21.5241 7.99992H27.3337Z" fill="#FF4F4F"/>
<path d="M27.3337 7.99992V27.9999C27.3337 29.4727 26.1398 30.6666 24.667 30.6666H7.33366C5.8609 30.6666 4.66699 29.4727 4.66699 27.9999V3.99992C4.66699 2.52716 5.8609 1.33325 7.33366 1.33325H20.8575M27.3337 7.99992L20.8575 1.33325M27.3337 7.99992H21.5241C21.1559 7.99992 20.8575 7.70144 20.8575 7.33325V1.33325" stroke="#FF4F4F" stroke-width="1.33333" stroke-linejoin="round"/>
<path d="M9 10.8484H23M9 14.3938H23M23 17.9393H9" stroke="#FF4F4F" stroke-width="1.27273" stroke-linecap="round"/>
<rect x="8.66699" y="21.3333" width="14.6667" height="4.66667" rx="1.2" fill="#FF4F4F"/>
<path d="M12.5033 24.6932C12.3878 24.6932 12.2944 24.6621 12.2233 24.5998C12.1544 24.5354 12.12 24.4543 12.12 24.3565C12.12 24.2587 12.1544 24.1776 12.2233 24.1132C12.2944 24.0487 12.3878 24.0165 12.5033 24.0165C12.6167 24.0165 12.7078 24.0487 12.7767 24.1132C12.8478 24.1776 12.8833 24.2587 12.8833 24.3565C12.8833 24.4521 12.8478 24.5321 12.7767 24.5965C12.7078 24.6609 12.6167 24.6932 12.5033 24.6932ZM15.0459 23.0998C15.0459 23.2421 15.0126 23.3721 14.9459 23.4898C14.8815 23.6054 14.7826 23.6987 14.6493 23.7698C14.5182 23.8387 14.357 23.8732 14.1659 23.8732H13.8426V24.6665H13.1893V22.3165H14.1659C14.3548 22.3165 14.5148 22.3498 14.6459 22.4165C14.7793 22.4832 14.8793 22.5754 14.9459 22.6932C15.0126 22.8109 15.0459 22.9465 15.0459 23.0998ZM14.1026 23.3532C14.287 23.3532 14.3793 23.2687 14.3793 23.0998C14.3793 22.9287 14.287 22.8432 14.1026 22.8432H13.8426V23.3532H14.1026ZM16.2384 22.3165C16.4851 22.3165 16.7006 22.3665 16.8851 22.4665C17.0717 22.5643 17.2151 22.7021 17.3151 22.8798C17.4151 23.0576 17.4651 23.2609 17.4651 23.4898C17.4651 23.7165 17.414 23.9187 17.3117 24.0965C17.2117 24.2743 17.0684 24.4143 16.8817 24.5165C16.6973 24.6165 16.4829 24.6665 16.2384 24.6665H15.3084V22.3165H16.2384ZM16.1884 24.0898C16.3795 24.0898 16.5295 24.0376 16.6384 23.9332C16.7473 23.8287 16.8017 23.6809 16.8017 23.4898C16.8017 23.2965 16.7473 23.1476 16.6384 23.0432C16.5295 22.9365 16.3795 22.8832 16.1884 22.8832H15.9617V24.0898H16.1884ZM19.3529 22.3165V22.8365H18.4129V23.2498H19.1063V23.7465H18.4129V24.6665H17.7596V22.3165H19.3529Z" fill="white"/>
</svg>
