<svg width="64" height="65" viewBox="0 0 64 65" fill="none" xmlns="http://www.w3.org/2000/svg">
<rect x="0.5" y="1" width="63" height="63" rx="31.5" fill="#005EFF" fill-opacity="0.1"/>
<rect x="0.5" y="1" width="63" height="63" rx="31.5" stroke="#005EFF"/>
<path d="M45.3198 32.5C45.3198 25.1398 39.3533 19.1666 31.9932 19.1666C24.6331 19.1666 18.6665 25.1398 18.6665 32.5C18.6665 39.8601 24.6331 45.8333 31.9932 45.8333C39.3533 45.8333 45.3198 39.8601 45.3198 32.5ZM38.3732 29.4333L30.8132 36.9933C30.6265 37.18 30.3732 37.2866 30.1065 37.2866C29.8398 37.2866 29.5865 37.18 29.3998 36.9933L25.6265 33.22C25.2398 32.8333 25.2398 32.1933 25.6265 31.8066C26.0132 31.42 26.6532 31.42 27.0398 31.8066L30.1065 34.8733L36.9598 28.02C37.3465 27.6333 37.9865 27.6333 38.3732 28.02C38.7598 28.4066 38.7598 29.0333 38.3732 29.4333Z" fill="#005EFF"/>
</svg>
