<svg width="36" height="36" viewBox="0 0 36 36" fill="none" xmlns="http://www.w3.org/2000/svg">
<rect width="36" height="36" rx="8" fill="#F8F9FC"/>
<path fill-rule="evenodd" clip-rule="evenodd" d="M12.772 12.3992C12.2117 12.445 11.8897 12.5304 11.6459 12.6546C11.1232 12.9209 10.6983 13.3459 10.432 13.8685C10.3077 14.1124 10.2224 14.4343 10.1766 14.9947C10.1299 15.5658 10.1292 16.2994 10.1292 17.3519V20.3148C10.1292 21.3672 10.1299 22.1008 10.1766 22.672C10.2224 23.2323 10.3077 23.5543 10.432 23.7981C10.6983 24.3208 11.1232 24.7457 11.6459 25.012C11.8897 25.1363 12.2117 25.2217 12.772 25.2674C13.3432 25.3141 14.0768 25.3148 15.1292 25.3148H15.6848V12.3519H15.1292C14.0768 12.3519 13.3432 12.3526 12.772 12.3992ZM12.444 14.6667C11.9326 14.6667 11.5181 15.0812 11.5181 15.5926C11.5181 16.104 11.9326 16.5185 12.444 16.5185H13.3699C13.8813 16.5185 14.2959 16.104 14.2959 15.5926C14.2959 15.0812 13.8813 14.6667 13.3699 14.6667H12.444ZM12.444 17.9074C11.9326 17.9074 11.5181 18.3219 11.5181 18.8333C11.5181 19.3447 11.9326 19.7593 12.444 19.7593H13.3699C13.8813 19.7593 14.2959 19.3447 14.2959 18.8333C14.2959 18.3219 13.8813 17.9074 13.3699 17.9074H12.444Z" fill="#8C93A6"/>
<path d="M17.5366 12.3519V25.3148H20.8699C21.9223 25.3148 22.656 25.3141 23.2272 25.2674C23.7874 25.2217 24.1094 25.1363 24.3533 25.012C24.876 24.7457 25.3009 24.3208 25.5672 23.7981C25.6914 23.5543 25.7768 23.2323 25.8225 22.672C25.8692 22.1008 25.8699 21.3672 25.8699 20.3148V17.3519C25.8699 16.2994 25.8692 15.5658 25.8225 14.9947C25.7768 14.4343 25.6914 14.1124 25.5672 13.8685C25.3009 13.3459 24.876 12.9209 24.3533 12.6546C24.1094 12.5304 23.7874 12.445 23.2272 12.3992C22.656 12.3526 21.9223 12.3519 20.8699 12.3519H17.5366Z" fill="#8C93A6"/>
</svg>
