<svg width="129" height="22" viewBox="0 0 129 22" fill="none" xmlns="http://www.w3.org/2000/svg">
<path d="M6.91406 21C5.625 21.0781 4.21875 21.0586 2.69531 20.9414C1.21094 20.8242 0.46875 19.8672 0.46875 18.0703V0.84375H2.57812C3.08594 0.84375 3.53516 1.03906 3.92578 1.42969C4.31641 1.82031 4.51172 2.28906 4.51172 2.83594V5.47266H6.91406V6.29297C6.91406 6.87891 6.71875 7.36719 6.32812 7.75781C5.9375 8.10938 5.46875 8.28516 4.92188 8.28516H4.51172V16.957C4.51172 17.6211 4.90234 17.9531 5.68359 17.9531H6.91406V21ZM9.19922 19.5938C8.37891 18.8906 7.79297 17.9531 7.44141 16.7812C7.08984 15.5703 6.91406 14.3203 6.91406 13.0312C6.91406 11.9766 7.05078 10.9219 7.32422 9.86719C7.63672 8.8125 8.10547 7.93359 8.73047 7.23047C9.74609 6.05859 11.0547 5.375 12.6562 5.17969C14.2578 4.94531 15.7031 5.0625 16.9922 5.53125C18.4766 6.11719 19.5703 7.13281 20.2734 8.57812C20.9375 9.86719 21.2695 11.3711 21.2695 13.0898C21.2695 14.3398 21.1328 15.4141 20.8594 16.3125C20.5859 17.2109 20.2344 17.9727 19.8047 18.5977C18.8672 19.8867 17.6758 20.6875 16.2305 21C14.9414 21.3516 13.6328 21.3711 12.3047 21.0586C11.0156 20.7852 9.98047 20.2969 9.19922 19.5938ZM12.0117 9.28125C11.1914 10.1797 10.8203 11.5273 10.8984 13.3242C10.9766 15.082 11.3086 16.3125 11.8945 17.0156C12.1289 17.3281 12.5391 17.6016 13.125 17.8359C13.7109 18.0312 14.2969 18.0508 14.8828 17.8945C15.5078 17.6992 16.0547 17.25 16.5234 16.5469C16.9922 15.8438 17.2461 14.7109 17.2852 13.1484C17.2852 11.7422 17.0508 10.6875 16.582 9.98438C16.1523 9.28125 15.6445 8.83203 15.0586 8.63672C14.4727 8.44141 13.8867 8.44141 13.3008 8.63672C12.7148 8.79297 12.2852 9.00781 12.0117 9.28125ZM28.8281 21C27.5391 21.0781 26.1328 21.0586 24.6094 20.9414C23.125 20.8242 22.3828 19.8672 22.3828 18.0703V0.84375H24.4922C25 0.84375 25.4492 1.03906 25.8398 1.42969C26.2305 1.82031 26.4258 2.28906 26.4258 2.83594V5.47266H28.8281V6.29297C28.8281 6.87891 28.6328 7.36719 28.2422 7.75781C27.8516 8.10938 27.3828 8.28516 26.8359 8.28516H26.4258V16.957C26.4258 17.6211 26.8164 17.9531 27.5977 17.9531H28.8281V21ZM38.2031 13.1484C37.6562 13.4219 36.8945 13.6758 35.918 13.9102C35.0195 14.1055 34.5703 14.2031 34.5703 14.2031C33.8672 14.3984 33.3594 14.6523 33.0469 14.9648C32.7734 15.3945 32.6367 15.8242 32.6367 16.2539C32.6367 16.8398 32.8125 17.3086 33.1641 17.6602C33.5156 17.9727 34.0234 18.1289 34.6875 18.1289C35.7812 18.1289 36.6406 17.8164 37.2656 17.1914C37.8906 16.5664 38.2031 15.707 38.2031 14.6133V13.1484ZM39.1406 20.3555C38.3203 20.7852 37.4414 21.0391 36.5039 21.1172C35.6055 21.2344 34.8047 21.293 34.1016 21.293C32.6953 21.293 31.4648 20.9219 30.4102 20.1797C29.3555 19.3984 28.8281 18.1289 28.8281 16.3711C28.8281 14.7305 29.2969 13.5586 30.2344 12.8555C31.2109 12.1523 32.4414 11.6836 33.9258 11.4492C34.1211 11.4492 34.3555 11.4297 34.6289 11.3906C34.9023 11.3125 35.2148 11.2539 35.5664 11.2148C37.2852 10.9805 38.1445 10.4727 38.1445 9.69141C38.1445 9.10547 37.832 8.73438 37.207 8.57812C36.6211 8.38281 36.0742 8.28516 35.5664 8.28516C35.0195 8.28516 34.5312 8.36328 34.1016 8.51953C33.6719 8.67578 33.3594 8.96875 33.1641 9.39844H29.2383C29.3945 8.1875 29.9414 7.19141 30.8789 6.41016C31.9336 5.51172 33.4375 5.0625 35.3906 5.0625C37.5781 5.0625 39.2188 5.43359 40.3125 6.17578C41.4453 6.95703 42.0117 8.05078 42.0117 9.45703V14.7891C42.0117 16.3516 41.7188 17.582 41.1328 18.4805C40.5859 19.3398 39.9219 19.9648 39.1406 20.3555ZM42.7734 0.84375H44.8828C45.4297 0.84375 45.8984 1.03906 46.2891 1.42969C46.6797 1.78125 46.875 2.23047 46.875 2.77734V21H42.7734V0.84375ZM61.1719 21H57.1289V11.8594V11.0391C57.1289 10.1016 56.8359 9.41797 56.25 8.98828C55.7031 8.55859 55.0781 8.34375 54.375 8.34375C53.6719 8.34375 53.0469 8.55859 52.5 8.98828C51.9531 9.41797 51.6797 10.1016 51.6797 11.0391V21H47.5781V11.8594C47.5781 9.20312 48.2617 7.42578 49.6289 6.52734C51.0352 5.62891 52.5781 5.14062 54.2578 5.0625C55.1562 5.0625 56.0352 5.16016 56.8945 5.35547C57.7539 5.55078 58.5352 5.94141 59.2383 6.52734C59.8242 6.01953 60.5078 5.66797 61.2891 5.47266C62.1094 5.23828 62.9492 5.10156 63.8086 5.0625C65.5273 5.0625 67.1094 5.51172 68.5547 6.41016C70 7.30859 70.7227 9.125 70.7227 11.8594V21H68.6719C68.0859 21 67.5977 20.8242 67.207 20.4727C66.8555 20.082 66.6797 19.5938 66.6797 19.0078V11.0391C66.6797 10.1016 66.3867 9.41797 65.8008 8.98828C65.2539 8.55859 64.6289 8.34375 63.9258 8.34375C63.2227 8.34375 62.5781 8.55859 61.9922 8.98828C61.4453 9.41797 61.1719 10.1016 61.1719 11.0391V11.8594V21ZM72.1875 5.41406H74.2969C74.8438 5.41406 75.3125 5.60937 75.7031 6C76.0938 6.39062 76.2891 6.85938 76.2891 7.40625V21H72.1875V5.41406ZM72.1875 0.84375H74.2969C74.8438 0.84375 75.3125 1.03906 75.7031 1.42969C76.0938 1.82031 76.2891 2.28906 76.2891 2.83594V4.06641H72.1875V0.84375ZM90.0586 21H88.0078C87.4219 21 86.9336 20.8242 86.543 20.4727C86.1914 20.082 86.0156 19.5938 86.0156 19.0078V11.0391C86.0156 10.1016 85.7227 9.41797 85.1367 8.98828C84.5898 8.55859 83.9648 8.34375 83.2617 8.34375C82.5586 8.34375 81.9336 8.55859 81.3867 8.98828C80.8398 9.41797 80.5664 10.1016 80.5664 11.0391V21H76.4648V11.8594C76.4648 9.20312 77.1484 7.42578 78.5156 6.52734C79.9219 5.62891 81.4648 5.14062 83.1445 5.0625C84.8633 5.0625 86.4453 5.51172 87.8906 6.41016C89.3359 7.30859 90.0586 9.125 90.0586 11.8594V21ZM101.543 16.1953H104.473C104.043 17.8359 103.223 19.0859 102.012 19.9453C100.801 20.8438 99.2773 21.293 97.4414 21.293C95.2148 21.293 93.4766 20.5703 92.2266 19.125C90.9766 17.7188 90.3516 15.707 90.3516 13.0898C90.3516 10.5898 90.957 8.63672 92.168 7.23047C93.418 5.78516 95.1562 5.0625 97.3828 5.0625C99.7266 5.0625 101.543 5.76562 102.832 7.17188C104.082 8.61719 104.707 10.6289 104.707 13.207C104.707 13.3633 104.707 13.5 104.707 13.6172C104.707 13.7344 104.707 13.8125 104.707 13.8516C104.707 14.0469 104.688 14.1836 104.648 14.2617H94.5117C94.5508 15.4727 94.8438 16.3711 95.3906 16.957C95.8984 17.582 96.6602 17.8945 97.6758 17.8945C98.3398 17.8945 98.9062 17.7578 99.375 17.4844C99.4922 17.4453 99.5898 17.3867 99.668 17.3086C99.7852 17.1914 99.9023 17.0742 100.02 16.957C100.059 16.8398 100.195 16.6836 100.43 16.4883C100.703 16.293 101.074 16.1953 101.543 16.1953ZM94.5117 11.625H100.488C100.41 10.5703 100.137 9.78906 99.668 9.28125C99.1602 8.73438 98.4375 8.46094 97.5 8.46094C96.6406 8.46094 95.9375 8.73438 95.3906 9.28125C94.8438 9.82812 94.5508 10.6094 94.5117 11.625ZM105.352 21V13.4414C105.352 11.918 105.566 10.6484 105.996 9.63281C106.465 8.57812 107.09 7.73828 107.871 7.11328C108.613 6.52734 109.473 6.09766 110.449 5.82422C111.465 5.55078 112.5 5.41406 113.555 5.41406C113.633 5.41406 113.73 5.41406 113.848 5.41406C113.965 5.41406 114.062 5.41406 114.141 5.41406V9.57422H112.793C111.66 9.57422 110.82 9.84766 110.273 10.3945C109.727 10.9414 109.453 11.8008 109.453 12.9727V21H105.352ZM114.199 15.8438H118.184C118.223 16.625 118.516 17.2109 119.062 17.6016C119.648 17.9922 120.43 18.1875 121.406 18.1875C122.109 18.1875 122.715 18.0508 123.223 17.7773C123.691 17.5039 123.926 17.1328 123.926 16.6641C123.926 15.9609 123.105 15.4336 121.465 15.082C120.762 14.9648 120.234 14.8477 119.883 14.7305C117.812 14.2227 116.426 13.6172 115.723 12.9141C114.941 12.2109 114.551 11.2734 114.551 10.1016C114.551 8.61719 115.117 7.38672 116.25 6.41016C117.422 5.51172 118.945 5.0625 120.82 5.0625C122.852 5.0625 124.473 5.51172 125.684 6.41016C126.816 7.38672 127.422 8.65625 127.5 10.2188H124.98C124.238 10.2188 123.672 9.88672 123.281 9.22266C123.125 9.06641 122.969 8.91016 122.812 8.75391C122.344 8.40234 121.699 8.22656 120.879 8.22656C120.098 8.22656 119.512 8.34375 119.121 8.57812C118.77 8.8125 118.594 9.16406 118.594 9.63281C118.594 10.2578 119.609 10.7852 121.641 11.2148C121.875 11.293 122.07 11.3516 122.227 11.3906C122.422 11.4297 122.598 11.4492 122.754 11.4492C124.746 11.957 126.133 12.543 126.914 13.207C127.656 13.9102 128.027 14.8477 128.027 16.0195C128.027 17.7383 127.402 19.0664 126.152 20.0039C124.98 20.8633 123.223 21.293 120.879 21.293C118.652 21.293 116.992 20.8438 115.898 19.9453C114.766 19.0469 114.199 17.7383 114.199 16.0195V15.8438Z" fill="#195EE6"/>
</svg>
