<svg width="20" height="20" viewBox="0 0 20 20" fill="none" xmlns="http://www.w3.org/2000/svg">
<path d="M11.1668 14.5167H9.07513C7.70846 14.5167 6.60013 13.3667 6.60013 11.9501C6.60013 11.6084 6.88346 11.3251 7.22513 11.3251C7.5668 11.3251 7.85013 11.6084 7.85013 11.9501C7.85013 12.6751 8.40013 13.2667 9.07513 13.2667H11.1668C11.7085 13.2667 12.1585 12.7834 12.1585 12.2001C12.1585 11.4751 11.9001 11.3334 11.4751 11.1834L8.1168 10.0001C7.4668 9.77507 6.5918 9.29173 6.5918 7.80007C6.5918 6.51673 7.60013 5.4834 8.83346 5.4834H10.9251C12.2918 5.4834 13.4001 6.6334 13.4001 8.05007C13.4001 8.39173 13.1168 8.67507 12.7751 8.67507C12.4335 8.67507 12.1501 8.39173 12.1501 8.05007C12.1501 7.32507 11.6001 6.7334 10.9251 6.7334H8.83346C8.2918 6.7334 7.8418 7.21673 7.8418 7.80007C7.8418 8.52506 8.10013 8.66673 8.52513 8.81673L11.8835 10.0001C12.5335 10.2251 13.4085 10.7084 13.4085 12.2001C13.4001 13.4751 12.4001 14.5167 11.1668 14.5167Z" fill="#195EE6"/>
<path d="M10 15.625C9.65833 15.625 9.375 15.3417 9.375 15V5C9.375 4.65833 9.65833 4.375 10 4.375C10.3417 4.375 10.625 4.65833 10.625 5V15C10.625 15.3417 10.3417 15.625 10 15.625Z" fill="#195EE6"/>
<path d="M12.4998 18.9582H7.49984C2.97484 18.9582 1.0415 17.0248 1.0415 12.4998V7.49984C1.0415 2.97484 2.97484 1.0415 7.49984 1.0415H12.4998C17.0248 1.0415 18.9582 2.97484 18.9582 7.49984V12.4998C18.9582 17.0248 17.0248 18.9582 12.4998 18.9582ZM7.49984 2.2915C3.65817 2.2915 2.2915 3.65817 2.2915 7.49984V12.4998C2.2915 16.3415 3.65817 17.7082 7.49984 17.7082H12.4998C16.3415 17.7082 17.7082 16.3415 17.7082 12.4998V7.49984C17.7082 3.65817 16.3415 2.2915 12.4998 2.2915H7.49984Z" fill="#195EE6"/>
</svg>
